HIERARCHY
ROOT ui
{
	 OFFSET 0 0 0
	 CHANNELS 3 XPosition YPosition Z Position
	 EndSite
	 {
	 OFFSET 0 -1 0
	 }
}
ROOT li
{
	 OFFSET 0 0 0
	 CHANNELS 3 XPosition YPosition Z Position
	 EndSite
	 {
	 OFFSET 0 -1 0
	 }
}
ROOT ul
{
	 OFFSET 0 0 0
	 CHANNELS 3 XPosition YPosition Z Position
	 EndSite
	 {
	 OFFSET 0 -1 0
	 }
}
ROOT ll
{
	 OFFSET 0 0 0
	 CHANNELS 3 XPosition YPosition Z Position
	 EndSite
	 {
	 OFFSET 0 -1 0
	 }
}
ROOT tt
{
	 OFFSET 0 0 0
	 CHANNELS 3 XPosition YPosition Z Position
	 EndSite
	 {
	 OFFSET 0 -1 0
	 }
}
ROOT tb
{
	 OFFSET 0 0 0
	 CHANNELS 3 XPosition YPosition Z Position
	 EndSite
	 {
	 OFFSET 0 -1 0
	 }
}
ROOT td
{
	 OFFSET 0 0 0
	 CHANNELS 3 XPosition YPosition Z Position
	 EndSite
	 {
	 OFFSET 0 -1 0
	 }
}
ROOT v
{
	 OFFSET 0 0 0
	 CHANNELS 3 XPosition YPosition Z Position
	 EndSite
	 {
	 OFFSET 0 -1 0
	 }
}
ROOT bn
{
	 OFFSET 0 0 0
	 CHANNELS 3 XPosition YPosition Z Position
	 EndSite
	 {
	 OFFSET 0 -1 0
	 }
}
MOTION
Frames: 13
Frame Time: 0.002
0.002415198087692261	-5.479230284690857E-4	0		0.546834716796875	-2.472485595703125	0		-0.9897447509765624	-0.01948660659790039	0		-0.6634371948242187	-2.646875732421875	0		1.3802767333984376	-1.0083804931640625	0		3.256919921875	-0.36272134399414063	0		4.72612255859375	-0.20774729919433593	0		6.03036962890625	0.53356103515625	0		-0.19849229431152343	5.91403173828125	0		
-0.021336793899536133	0.003154998064041138	0		0.5040301818847657	-2.47365087890625	0		-1.06149560546875	-0.01543471622467041	0		-0.6482658081054687	-2.65144580078125	0		1.3774600830078125	-1.0128367309570312	0		3.25606494140625	-0.3732048645019531	0		4.7322841796875	-0.2162896728515625	0		6.03552783203125	0.5240152587890625	0		-0.1821680145263672	5.922451171875	0		
0.009914531707763671	0.005474250793457031	0		0.5431867065429687	-2.482391845703125	0		-1.057236572265625	-0.01191616153717041	0		-0.6769732055664063	-2.64069482421875	0		1.38766259765625	-1.016376708984375	0		3.284406494140625	-0.35788592529296875	0		4.73555712890625	-0.210800537109375	0		6.03981884765625	0.5314873657226562	0		-0.1809058380126953	5.9209853515625	0		
-0.009798465728759765	0.012173432350158692	0		0.5105167236328125	-2.467603271484375	0		-1.0529788818359376	-0.009381978034973145	0		-0.6436600952148438	-2.628369873046875	0		1.409885498046875	-1.0179850463867188	0		3.27359130859375	-0.3652696228027344	0		4.73880029296875	-0.21029159545898438	0		6.03600146484375	0.5230377807617187	0		-0.19669883728027343	5.91165771484375	0		
0.010388221740722656	0.004610590934753418	0		0.5316766967773437	-2.47717578125	0		-1.0607916259765624	-0.016739631652832033	0		-0.681427978515625	-2.627515625	0		1.373104248046875	-1.0201480102539062	0		3.2568271484375	-0.36558477783203125	0		4.739037109375	-0.2107344970703125	0		6.02230615234375	0.5316871337890625	0		-0.17746835327148439	5.9061025390625	0		
-0.01637824821472168	0.00441113805770874	0		0.5318990478515625	-2.4775703125	0		-1.060558837890625	-0.01712749481201172	0		-0.6171721801757812	-2.623362548828125	0		1.4342596435546875	-1.0309818115234375	0		3.2670439453125	-0.36806234741210936	0		4.73926953125	-0.21114608764648438	0		6.02748388671875	0.5232337646484375	0		-0.2122382049560547	5.90196142578125	0		
0.006823708057403564	8.85549008846283E-4	0		0.5321141357421875	-2.47793359375	0		-1.0603349609375	-0.01748497772216797	0		-0.6879057006835938	-2.616214111328125	0		1.364481689453125	-1.0308477783203125	0		3.265359375	-0.3554213562011719	0		4.7394931640625	-0.2115236053466797	0		6.0367021484375	0.52178662109375	0		-0.19493634033203125	5.90947900390625	0		
-0.01594277858734131	0.0037219629287719726	0		0.5142755737304687	-2.48413427734375	0		-1.056094970703125	-0.013838458061218261	0		-0.6347393798828125	-2.6219189453125	0		1.3906107177734375	-1.0423656005859374	0		3.277455078125	-0.37184475708007814	0		4.7557470703125	-0.20598007202148438	0		6.0369150390625	0.521440185546875	0		-0.18062136840820311	5.92105126953125	0		
0.01527416706085205	0.006206816196441651	0		0.5365361938476563	-2.474586669921875	0		-1.0558988037109376	-0.014128926277160645	0		-0.6794559326171875	-2.608888916015625	0		1.39080419921875	-1.04266259765625	0		3.28572900390625	-0.361204345703125	0		4.755943359375	-0.2062855529785156	0		6.03217724609375	0.530166259765625	0		-0.2105587615966797	5.8999736328125	0		
-0.0155675106048584	0.0031706910133361818	0		0.5326805419921875	-2.478817138671875	0		-1.059748291015625	-0.018355657577514648	0		-0.6433057861328125	-2.612403076171875	0		1.4329366455078125	-1.049224609375	0		3.291849609375	-0.36951321411132815	0		4.74713671875	-0.20449043273925782	0		6.02830029296875	0.5219222412109376	0		-0.20937960815429688	5.897708984375	0		
0.011591691970825196	0.0027540209293365476	0		0.5308131713867188	-2.482027587890625	0		-1.0595885009765624	-0.0185765380859375	0		-0.6451663208007813	-2.614610595703125	0		1.4210943603515624	-1.049365478515625	0		3.2570166015625	-0.3684937744140625	0		4.75223876953125	-0.21276011657714844	0		6.02846142578125	0.5216846313476563	0		-0.21019148254394532	5.8994931640625	0		
-0.02231822395324707	-0.004192398071289062	0		0.5388750610351563	-2.49227587890625	0		-1.0644705810546875	-0.02172835159301758	0		-0.6430186157226563	-2.6128134765625	0		1.4241595458984375	-1.0595799560546875	0		3.28109716796875	-0.3768629150390625	0		4.76136376953125	-0.21502493286132812	0		6.04153759765625	0.5123880004882813	0		-0.19398190307617189	5.90718896484375	0		
0.015870591163635255	0.0053765358924865725	0		0.5170530395507813	-2.483278076171875	0		-1.055302490234375	-0.014949376106262208	0		-0.6728406982421875	-2.603756103515625	0		1.4242755126953126	-1.0597415771484375	0		3.3133642578125	-0.3562582397460938	0		4.7655244140625	-0.209221923828125	0		6.04165673828125	0.5122167358398437	0		-0.1777801055908203	5.91691552734375	0		
